<svg width="48" height="48" viewBox="0 0 48 48" fill="none" xmlns="http://www.w3.org/2000/svg">
<path d="M43.1244 30.2748C46.3577 25.5544 47.966 20.834 47.9993 16.5738C48.066 8.84417 43.0494 2.62502 33.8829 0.642451C23.158 -1.68235 9.84153 2.47161 0 10.3665C4.33327 7.23923 9.21654 4.67841 14.2248 3.4983C20.4331 1.07909 26.9746 0.500839 32.6662 1.75175C45.3744 4.56039 49.066 16.7981 40.8994 29.0947C40.0495 30.3693 39.0661 31.5848 37.9828 32.7059L25.408 5.98832L9.5582 39.6803C4.09161 36.2108 3.18329 29.0357 7.96656 21.8371C9.69987 19.2173 11.9915 16.8925 14.5915 14.9807C16.2581 13.541 17.8998 12.3137 19.7581 11.3578C14.3331 13.7534 9.5332 17.6005 6.29158 22.321C3.98328 25.696 2.84163 29.0593 2.81663 32.104C2.77496 36.2462 4.7666 39.7865 8.51655 41.8989L5.64159 48H14.1081L15.9414 43.9404C17.7914 44.0585 19.7164 43.9404 21.658 43.6218L19.7581 48H31.0496L28.3329 41.7337C29.8829 41.1082 31.4079 40.3765 32.8745 39.5269L36.6995 48H45.166L39.0495 34.9717C40.5911 33.5437 41.9661 31.9624 43.1244 30.2748ZM27.4913 39.7747L25.408 34.9835L22.683 41.2734C20.7331 41.6864 18.7914 41.8753 16.9164 41.7927L25.408 22.9936L31.9662 37.5089C30.5329 38.3822 29.0246 39.1492 27.4913 39.7747Z" fill="white"/>
</svg>
